<svg xmlns="http://www.w3.org/2000/svg" viewBox="0 0 400 300" width="406" height="306" class="illustration styles_illustrationTablet__1DWOa"><g data-name="#395_dream_flatline"><path d="M115.23 165.12a3.51 3.51 0 0 1-1.54-.36C84.63 150.47 51 130.45 56 116.25c2.17-6.26 10.59-9.21 25.74-9 12.91.15 30.65 2.62 51.3 7.14a3.5 3.5 0 1 1-1.5 6.83c-47.63-10.42-67.31-7.29-68.92-2.64s11.55 19 54.2 39.93a3.5 3.5 0 0 1-1.54 6.65zM319.16 225.35c-14.47 0-32.94-3-49.45-6.54a3.5 3.5 0 0 1 1.46-6.85c45.76 9.73 64.7 6.56 66.26 2.06s-11.68-19.1-54.79-40.2a3.5 3.5 0 0 1 3.08-6.29C315.07 181.9 349 202 344.05 216.31c-2.31 6.63-12.05 9.04-24.89 9.04z" fill="#231f20"/><path d="M154.34 91c.25.58.31 12 .31 12s-14.75-1.68-15.61-1.44-17.51 9.47-13.62 10.82 14.16-2.17 14.16-2.17 30.65 9.91 36.52 6.15S172.88 92 172.88 92z" fill="#fff"/><path d="M171.55 118c-9.86 0-28.59-5.86-32-6.94-1.62.53-10.62 3.4-14.41 2.08a1.42 1.42 0 0 1-1.09-1.42c.11-3.33 14.61-10.8 14.76-10.84.83-.23 9.43.7 15 1.33 0-5-.13-10.37-.27-11a.69.69 0 0 1 .09-.69.73.73 0 0 1 .67-.28l18.54 1a.75.75 0 0 1 .64.45 86.34 86.34 0 0 1 3.85 10.87c2.14 7.81 1.84 12.66-.91 14.41a9.62 9.62 0 0 1-4.87 1.03zm-32-8.49a.59.59 0 0 1 .23 0c8.43 2.72 31.31 9.15 35.88 6.23 4.27-2.73-.79-17.13-3.32-23l-17.2-1c.13 1.75.2 5.51.23 11.23a.75.75 0 0 1-.25.56.7.7 0 0 1-.58.19c-5.48-.62-14.49-1.57-15.38-1.46-1.6.58-13.19 7.43-13.6 9.35h.07c3 1 10.88-1.21 13.68-2.17a.64.64 0 0 1 .27.03z" fill="#231f20"/><path d="M284.2 169.1a84.62 84.62 0 0 1-146.81 57.46 80.36 80.36 0 0 1-5.5-6.57A84.66 84.66 0 1 1 281 145.81a84.57 84.57 0 0 1 3.24 23.29z" fill="#9EF24B"/><path d="M199.55 84.44A84.75 84.75 0 0 1 281 145.81a84.73 84.73 0 0 1-81.41 107.94 84.41 84.41 0 0 1-62.16-27.19 80.36 80.36 0 0 1-5.5-6.57 84.64 84.64 0 0 1 67.62-135.55m0-1.64a86.3 86.3 0 0 0-69 138.15 79 79 0 0 0 5.54 6.63.39.39 0 0 0 .08.1 86.92 86.92 0 0 0 15.28 13.1 86.32 86.32 0 0 0 134.39-71.68 87.4 87.4 0 0 0-1.28-14.93 86.34 86.34 0 0 0-85-71.37z" fill="#231f20"/><path d="M284.2 169.1a84.67 84.67 0 0 1-131.82 70.31 37.68 37.68 0 0 0 15-7.25c2.5-2 4.83-4.41 7.82-5.6 8.29-3.3 17.07 3.74 26 4 7.59.19 14.52-4.71 19.09-10.79s7.27-13.29 10.54-20.14c2-4.24 4.88-8.83 9.51-9.62s9.3 5.76 5.59 8.63c2.75 2.49 7.12-.1 9.36-3.05 5.33-7 7.16-16 10.56-24.11 3.24-7.73 9-15.48 17.13-17a85.19 85.19 0 0 1 1.22 14.62zM161.07 181.51c-3.12 7.75 5 16.39 2.71 24.44-1.6 5.69-7.71 8.74-13.37 10.46a89.66 89.66 0 0 1-18.54 3.59 84.67 84.67 0 0 1 22.32-122.39 20.16 20.16 0 0 1 7.17 13.86c.61 6.42-1.39 12.86-4.36 18.59-2.76 5.33-6.43 10.34-7.69 16.21s.88 13.13 6.54 15.14c4.21 1.49 10 .14 12.39 3.89 1.71 2.65.42 6.23-1.5 8.71s-4.49 4.58-5.67 7.5zM281 145.81c-3.52.8-7.11 1.39-10.6 2.33-6.17 1.66-12.47 4.82-15.32 10.54-2 4-2.38 9.2-6.14 11.6-3 1.92-6.92 1.16-10.47 1.53-6.73.7-12.26 5.6-16.51 10.87s-7.82 11.21-13.09 15.45-13 6.42-18.83 2.94a37.85 37.85 0 0 0 24.57-21.7c2.66-6.43 4.17-14.4 10.43-17.45 4-2 9.1-1.24 12.81-3.76 7-4.75 3.93-16.63 9.66-22.86 2.2-2.38 5.38-3.56 8.44-4.65 3.81-1.36 9.38-4.14 15.28-6.66a84.32 84.32 0 0 1 9.77 21.82zM261.1 111a55.56 55.56 0 0 1-11.5 8c-13.17 6.8-30.32 9.25-37.51 22.21-3.44 6.21-3.75 13.71-6.69 20.17s-10.76 12-16.89 8.39c-5.24-3.06-5.59-10.55-4.07-16.43s4.27-11.83 2.95-17.76c-1-4.63-4.4-8.33-7.39-12-5.44-6.71-10.09-14.28-12-22.7a34.92 34.92 0 0 1-.85-9.94 84.7 84.7 0 0 1 94 20.1z" fill="#29B2BB"/><path d="M186.27 96.54s12.35 19.93 5.23 24.07-51.5 7.48-51.5 7.48-9 12.31-11.15 7.48 9.85-18 9.85-18l26.33-4.9-10.85-12.29z" fill="#fff"/><path d="M130.43 137.44h-.25a2.4 2.4 0 0 1-2-1.55c-2.33-5.14 8.72-17.48 10-18.87a.76.76 0 0 1 .42-.23l25-4.65-10-11.3a.75.75 0 0 1 .47-1.24l32.05-3.8a.76.76 0 0 1 .73.35c.37.6 9.08 14.78 7.31 21.86a5 5 0 0 1-2.34 3.26c-6.93 4-47 7.21-51.44 7.56-1.38 1.97-6.58 8.61-9.95 8.61zm8.69-19.23c-3.35 3.73-11.15 13.52-9.55 17 .26.56.54.66.77.68 2.09.21 6.68-5 9.1-8.28a.74.74 0 0 1 .55-.31c.44 0 44.25-3.38 51.13-7.38a3.46 3.46 0 0 0 1.64-2.32c1.46-5.85-5.47-17.93-6.88-20.3l-30.15 3.57 9.9 11.22a.74.74 0 0 1 .15.74.76.76 0 0 1-.58.49z" fill="#231f20"/><path d="M266.24 88.81c-.34 1.36 6.67 8.3 3.67 23.47 0 0 6.52 4.89 3.84 7.78s-57.62 3.71-59.62 1c-2.26-3 5.21-11.07 5.21-11.07s-3.57-38.51.63-40.48 51.56.65 51.51 3.47-6.6 5.48-6.3 7.78 1.06 8.05 1.06 8.05z" fill="#fff"/><path d="M236.7 123.46c-5.37 0-10.3-.1-14-.3-8.32-.45-8.88-1.21-9.19-1.62-2.4-3.22 3.59-10.19 5-11.79-.87-9.52-3.2-38.87 1.09-40.89 4.6-2.15 47.79.43 51.93 3.11a1.2 1.2 0 0 1 .65 1c0 1.8-1.88 3.3-3.67 4.75-1.21 1-2.72 2.21-2.63 2.92.3 2.3 1.06 8 1.06 8a.81.81 0 0 1 0 .22 8.94 8.94 0 0 0 .68 1.47c1.71 3.27 5.23 10 3.07 21.57 1.12.91 4.16 3.58 4.39 6.16a3.09 3.09 0 0 1-.83 2.44c-1.79 2.05-21.58 2.96-37.55 2.96zm-7.34-53.93c-4.61 0-8 .21-9.07.69-1.83.86-2.4 16-.2 39.73a.74.74 0 0 1-.2.58c-2.92 3.15-6.45 8.36-5.15 10.11 3.1 2.45 55.59 1.5 58.46-1.1a1.54 1.54 0 0 0 .43-1.28c-.17-2-3.07-4.55-4.17-5.38a.76.76 0 0 1-.29-.74c2.24-11.32-1.18-17.89-2.83-21a4.93 4.93 0 0 1-.86-2.3c-.1-.79-.77-5.8-1-7.91-.21-1.54 1.44-2.88 3.18-4.29 1.36-1.11 2.9-2.35 3.09-3.41-2.58-1.81-27.43-3.7-41.39-3.7zM267 89z" fill="#231f20"/><path d="M222.65 116.31a7.08 7.08 0 0 0-2.67 1.16c-.26.18-.53.45-.48.77.17 1.15 3.19 1.8 4.09 1.93 6.55 1 13.31.63 19.9.57a136.61 136.61 0 0 0 20.3-1.7c2.41-.39 2.55-2.29 0-2.71-4.09-.68-8.07-.5-12.14-.69-4.34-.21-8.66-.28-13-.18q-5.11.11-10.23.4a35.52 35.52 0 0 0-5.77.45z" fill="#d1d3d4"/><path d="M230 107.83a8.55 8.55 0 0 1-3.82-.87 15.94 15.94 0 0 1-9.06-14.81c.2-4.64 4.37-8.59 7.91-11.2 8.14-6 20.69-6.77 28.68 0 2.89 2.42 6 4.49 6.66 8.5a10 10 0 0 1-2.37 8.18c-2.41 2.69-6.07 3.84-9.62 4.51s-7.21 1-10.48 2.53c-3.01 1.39-5.14 3.1-7.9 3.16z" fill="#231f20"/><path d="M229.83 108.59a9.42 9.42 0 0 1-4-1 16.62 16.62 0 0 1-9.5-15.52c.17-3.93 2.93-7.89 8.22-11.78 9-6.62 21.74-6.63 29.61 0l1 .83c2.58 2.11 5.25 4.3 5.91 8.12a10.71 10.71 0 0 1-2.55 8.87c-2.75 3.06-7 4.17-10 4.74-.81.16-1.62.29-2.43.43a30.57 30.57 0 0 0-7.88 2c-.84.39-1.61.8-2.35 1.2-1.91 1-3.71 2-5.85 2h-.2zm10-31.65a24.38 24.38 0 0 0-14.36 4.62c-4.9 3.6-7.46 7.17-7.61 10.62a15.09 15.09 0 0 0 8.63 14.09 7.81 7.81 0 0 0 3.48.81c1.79 0 3.36-.88 5.17-1.86.77-.41 1.56-.83 2.43-1.24a32.55 32.55 0 0 1 8.27-2.16c.8-.13 1.6-.26 2.39-.41 3-.58 6.78-1.58 9.2-4.28a9.25 9.25 0 0 0 2.18-7.61c-.56-3.26-2.9-5.18-5.38-7.21l-1-.84a20.82 20.82 0 0 0-13.38-4.53z" fill="#231f20"/><path d="M226.55 68s-13.25-13.45-39.78-14.1-51.14 17.46-43.72 36.84c5.46 14.24 12.83 17.52 12.83 17.52l34.2-7.44L188.4 96s25.7 6.79 32.88 0 17.72-18.23 5.27-28z" fill="#2DFFCD"/><path d="m227.49 92.72-8.45.21s-2.47-1.19-.43-8.1 5.27-6.83 5.27-6.83h15.8c.83 0 9 .5 16.23.46 0 8.44.63 16 .63 16-.81-.83-1 2.17-1 2.16a12.49 12.49 0 0 1-.66 4c-4.86.42-18.35 2.69-21.16 2.07-5.34-1.26-6.23-9.97-6.23-9.97z" fill="#fff"/><path d="M235.17 103.41a8.17 8.17 0 0 1-1.58-.12c-5-1.1-6.37-7.75-6.7-9.87l-7.84.2a.78.78 0 0 1-.31-.07c-.31-.15-2.93-1.65-.79-8.92s5.78-7.31 6-7.31h15.92c2.74.15 9.76.48 16.09.46a.7.7 0 0 1 .49.2.66.66 0 0 1 .2.48c0 8.31.62 15.85.62 15.92a.67.67 0 0 1-.74.74 7.37 7.37 0 0 0-.23 1.51 13.34 13.34 0 0 1-.71 4.19.7.7 0 0 1-.58.45c-1.55.13-4.06.46-6.71.82a129.28 129.28 0 0 1-13.13 1.32zM227.49 92a.68.68 0 0 1 .68.62c0 .08.91 8.23 5.72 9.3 1.79.39 9-.56 14.18-1.25 2.43-.33 4.73-.64 6.32-.79a12.28 12.28 0 0 0 .48-3.36c0-.66.18-2.39.9-2.84-.15-2-.53-8-.57-14.59-6.16 0-12.83-.32-15.48-.46h-15.87s-2.78.12-4.61 6.33c-1.56 5.28-.38 6.88 0 7.22l8.22-.21z" fill="#231f20"/><path d="M242.07 92.36c-1.62.88-3.54 1.76-4 1.27-.94-.89-.28-3.32-.28-3.32" fill="#fff"/><path d="M238.45 94.53a1.32 1.32 0 0 1-.95-.35c-1.21-1.14-.62-3.59-.49-4.07a.76.76 0 0 1 1.46.4 3.88 3.88 0 0 0 0 2.51c.21 0 1-.11 3.23-1.32a.75.75 0 0 1 1 .3.76.76 0 0 1-.3 1c-2.06 1.16-3.23 1.53-3.95 1.53z" fill="#231f20"/><path d="M223.38 82.6a8.69 8.69 0 0 1-3.23-2.71 18.26 18.26 0 0 1-3.24-7.5c-.73-3.39-.87-7 .49-10.23 1.25-3 4.35-6.1 7.79-5.35 3.68.81 7.62 2.47 11.22 3.72 11.26 3.89 28.7 6 31.1 20.1 1.81 10.6-.83 17.45-6.36 21.68-6.75 5.16-15.75 3.15-11.29-6.7a9.86 9.86 0 0 1 6.6-5.44 17.3 17.3 0 0 1-7.32-5.64 10.94 10.94 0 0 0-2.08-2.41c-4.11-3-10.08-1.57-14.6-.54-3.67.84-6.37 2.19-9.08 1.02z" fill="#fff"/><path d="M253.84 105.83a6.41 6.41 0 0 1-4-1.26c-1.32-1.06-3.17-3.66-.63-9.27a10.71 10.71 0 0 1 5.29-5.24 17.86 17.86 0 0 1-5.96-5.06l-.37-.5a7.58 7.58 0 0 0-1.55-1.75c-3.79-2.73-9.35-1.47-13.83-.45h-.17c-.86.19-1.67.42-2.44.63-2.57.72-4.79 1.34-7.1.34a9.41 9.41 0 0 1-3.52-2.94 18.56 18.56 0 0 1-3.39-7.81c-.89-4.15-.71-7.74.53-10.67 1.48-3.5 4.92-6.61 8.65-5.79a63.69 63.69 0 0 1 8.26 2.64c1 .38 2 .75 3 1.1 2 .68 4.15 1.31 6.45 2 10.82 3.13 23.09 6.69 25.14 18.71 1.74 10.16-.5 17.7-6.65 22.4a13.25 13.25 0 0 1-7.71 2.92zm-13.15-26.24a11.37 11.37 0 0 1 6.81 1.92 8.87 8.87 0 0 1 1.89 2.09l.35.48a16.49 16.49 0 0 0 7 5.39.76.76 0 0 1-.11 1.43 9.14 9.14 0 0 0-6.1 5c-1.57 3.47-1.5 6.12.2 7.47 2.17 1.72 6.45 1 9.95-1.67 5.75-4.4 7.74-11.26 6.08-21-1.9-11.09-13.68-14.5-24.08-17.52-2.31-.67-4.5-1.3-6.53-2-1-.35-2-.73-3.07-1.11a62.73 62.73 0 0 0-8.08-2.52c-2.88-.64-5.72 2.05-6.93 4.9-1.12 2.65-1.27 5.93-.45 9.78a17.29 17.29 0 0 0 3.1 7.19 8 8 0 0 0 2.94 2.49c1.82.79 3.71.26 6.1-.41.79-.22 1.62-.45 2.51-.65h.17a38.18 38.18 0 0 1 8.25-1.26z" fill="#231f20"/><path d="M236.73 98a.76.76 0 0 1-.45-.15c-.13-.09-3.2-2.37-3.36-5.75-.1-2.06.89-4 2.94-5.87a.75.75 0 1 1 1 1.12c-1.69 1.51-2.51 3.08-2.44 4.66.13 2.66 2.73 4.61 2.75 4.63a.75.75 0 0 1-.44 1.36zM227.49 92.72s0-5.64 2-7.74c0 0-2.77 2-6.39 8z" fill="#231f20"/><path d="M223.07 93.74a.75.75 0 0 1-.64-.36.73.73 0 0 1 0-.78c3.65-6 6.47-8.14 6.59-8.23a.74.74 0 0 1 1 .11.75.75 0 0 1 0 1c-1.44 1.55-1.77 5.74-1.77 7.23a.75.75 0 0 1-.71.74l-4.42.28zm4.42-1zm-.28-4.35a43.39 43.39 0 0 0-2.74 3.78l2.29-.14a23 23 0 0 1 .45-3.66zM244.76 98.9a.74.74 0 0 1-.63-.34.75.75 0 0 1 .21-1c.21-.13.79-.63.77-1.11s-.45-.83-1.23-1.27a.75.75 0 0 1-.29-1 .76.76 0 0 1 1-.29c1.29.72 2 1.57 2 2.53a3.09 3.09 0 0 1-1.44 2.42.78.78 0 0 1-.39.06zM244.88 90a.74.74 0 0 1-.63-.34.75.75 0 0 1 .21-1c.21-.14.79-.63.77-1.11s-.45-.84-1.22-1.27a.74.74 0 0 1-.29-1 .75.75 0 0 1 1-.29c1.29.72 2 1.57 2 2.53a3.11 3.11 0 0 1-1.44 2.42.78.78 0 0 1-.4.06z" fill="#231f20"/><path d="M257.67 108.8a.85.85 0 0 0-.63-.17c-4.24.07-8.67.67-12.56-1l2.46-1.62c.61-.4 1.29-1.11.9-1.72s-1-.4-1.57-.25a43.18 43.18 0 0 0-7.08 2.3v-.08s-19.48-3.46-25.47-10c-2.87-3.16-3.46-8-3.6-12s2-8.38-1-11.8c-2.27-2.63-6.9-3.09-9.92-1.52-3.26 1.69-5.07 6.09-5.75 9.47a38.7 38.7 0 0 0 1.23 18.16 20.67 20.67 0 0 0 9 12.14c10.27 6.16 30.43 5.07 36.14 4.61a11.82 11.82 0 0 0 4.28.57c3.79 0 7.71-.51 10.93-2.51 1.43-.88 2.79-2.25 2.83-3.94a.72.72 0 0 0-.19-.64z" fill="#fff"/><path d="M243.78 116.56a12.3 12.3 0 0 1-4.11-.57c-6.14.49-26.09 1.48-36.41-4.72A21.27 21.27 0 0 1 194 98.69a39.28 39.28 0 0 1-1.25-18.52c.36-1.78 1.87-7.78 6.14-10 3.13-1.62 8.23-1.32 10.84 1.7 2.27 2.62 1.86 5.67 1.47 8.62a21.06 21.06 0 0 0-.29 3.64c.13 3.79.65 8.53 3.41 11.57 5.52 6.07 23.39 9.49 24.93 9.78a39.71 39.71 0 0 1 6-2l.85-.23c1.5-.41 2.15.18 2.4.57.56.86.12 1.95-1.11 2.76l-1.21.79a27.11 27.11 0 0 0 8.42.54c.82 0 1.64-.07 2.45-.08a1.59 1.59 0 0 1 1.2.4 1.52 1.52 0 0 1 .36 1.1c-.07 2.28-2 3.83-3.2 4.55-3.7 2.3-8.23 2.6-11.31 2.62zm-4-2.08a.81.81 0 0 1 .27 0 11.25 11.25 0 0 0 4 .52c2.9 0 7.15-.3 10.53-2.4.9-.55 2.4-1.71 2.48-3.27l-2.42.08c-3.51.14-7.15.28-10.45-1.15a.75.75 0 0 1-.45-.63.74.74 0 0 1 .34-.69l2.46-1.62a1.56 1.56 0 0 0 .68-.71h-.13a2.34 2.34 0 0 0-.62.09l-.85.23a36.42 36.42 0 0 0-6.08 2 .78.78 0 0 1-.65 0l-.12-.07c-2.55-.48-19.84-3.89-25.6-10.22-3.1-3.39-3.66-8.48-3.81-12.52a24.22 24.22 0 0 1 .3-3.9c.37-2.74.72-5.33-1.11-7.44-2.11-2.45-6.44-2.67-9-1.34-2.92 1.51-4.68 5.61-5.36 9a37.79 37.79 0 0 0 1.22 17.79A19.83 19.83 0 0 0 204 110c10 6 29.86 5 35.69 4.5zM165.07 113.38a.76.76 0 0 1-.22-1.48c.38-.11 9.48-2.86 13.61-3.23a.74.74 0 0 1 .81.68.75.75 0 0 1-.68.82c-4 .35-13.21 3.14-13.31 3.17a.52.52 0 0 1-.21.04zM188.4 96.79a.76.76 0 0 1-.72-.53c-.2-.64-4.87-15.81-3.05-21.1a.77.77 0 0 1 1-.47.75.75 0 0 1 .46 1c-1.66 4.83 3 20 3.07 20.17a.76.76 0 0 1-.5.94.83.83 0 0 1-.26-.01zM270.44 218.89a3.71 3.71 0 0 1-.73-.08 685.77 685.77 0 0 1-80-22.81 687.71 687.71 0 0 1-76-31.24 3.5 3.5 0 0 1 3.08-6.29A681 681 0 0 0 192 189.39 677.22 677.22 0 0 0 271.17 212a3.5 3.5 0 0 1-.73 6.93z" fill="#231f20"/><path d="M137.74 226.19c-.12.12-.24.24-.35.37z" fill="#e6e7e8"/><path fill="#54F5FF" d="m93.08 208.68-9.26-3.88-8.44 5.43.83-10-7.77-6.35 9.76-2.31 3.65-9.35 5.21 8.58 10.01.57-6.54 7.6 2.55 9.71z"/><path d="M75.38 210.68a.45.45 0 0 1-.45-.49l.81-9.76-7.59-6.21a.44.44 0 0 1-.15-.45.46.46 0 0 1 .33-.33l9.54-2.25 3.55-9.13a.46.46 0 0 1 .81-.08l5.09 8.38 9.78.56a.47.47 0 0 1 .39.27.45.45 0 0 1-.07.47L91 199.09l2.49 9.48a.43.43 0 0 1-.14.45.47.47 0 0 1-.47.08l-9-3.79-8.25 5.3a.42.42 0 0 1-.25.07zm-5.95-16.58 7.06 5.78a.44.44 0 0 1 .17.38l-.76 9.09 7.68-4.93a.45.45 0 0 1 .42 0l8.41 3.52-2.32-8.82a.47.47 0 0 1 .09-.41l5.95-6.91-9.1-.52a.45.45 0 0 1-.36-.22l-4.74-7.79-3.3 8.5a.48.48 0 0 1-.32.27z" fill="#54F5FF"/><path fill="#29B2BB" d="m320.41 144.9-6.16-5.74-8.22 1.81 3.56-7.63-4.27-7.26 8.36 1.03 5.58-6.31 1.61 8.27 7.72 3.36-7.37 4.09-.81 8.38z"/><path d="M320.41 145.28a.42.42 0 0 1-.26-.1l-6-5.61-8 1.77a.38.38 0 0 1-.43-.53l3.48-7.45-4.2-7.09a.38.38 0 0 1 0-.4.4.4 0 0 1 .36-.17l8.17 1 5.45-6.16a.37.37 0 0 1 .38-.11.38.38 0 0 1 .28.29l1.56 8.07 7.54 3.29a.36.36 0 0 1 .23.33.39.39 0 0 1-.19.35l-7.2 4-.79 8.19a.38.38 0 0 1-.25.31.28.28 0 0 1-.13.02zm-6.16-6.5a.35.35 0 0 1 .26.1l5.6 5.22.74-7.62a.37.37 0 0 1 .19-.29l6.7-3.72-7-3.05a.37.37 0 0 1-.22-.28l-1.52-7.51-5 5.73a.37.37 0 0 1-.33.12l-7.6-.93 3.88 6.6a.36.36 0 0 1 0 .35l-3.23 6.94 7.47-1.65z" fill="#29B2BB"/><path fill="#54F5FF" d="m292.56 127.49-4.03-3.76-5.38 1.19 2.33-4.99-2.79-4.76 5.47.68 3.65-4.13 1.06 5.41 5.05 2.2-4.82 2.68-.54 5.48z"/><path d="M292.56 127.74a.2.2 0 0 1-.16-.07l-3.94-3.67-5.26 1.17a.27.27 0 0 1-.24-.09.25.25 0 0 1 0-.26l2.27-4.88-2.73-4.64a.24.24 0 0 1 0-.26.25.25 0 0 1 .24-.11l5.34.65 3.57-4a.26.26 0 0 1 .25-.08.27.27 0 0 1 .18.19l1 5.29 4.94 2.15a.27.27 0 0 1 .15.21.25.25 0 0 1-.13.23l-4.71 2.61-.52 5.36a.26.26 0 0 1-.16.21zm-4-4.25a.24.24 0 0 1 .17.06l3.67 3.42.48-5a.26.26 0 0 1 .13-.19l4.38-2.43-4.59-2a.25.25 0 0 1-.15-.18l-.95-4.92-3.36 3.75a.21.21 0 0 1-.21.08l-5-.61 2.53 4.32a.24.24 0 0 1 0 .23l-2.12 4.54 4.89-1.08z" fill="#54F5FF"/><path fill="#54F5FF" d="m98.63 82.94-7.57-1.28-5.34 5.51-1.13-7.59-6.89-3.37 6.87-3.42 1.08-7.59 5.38 5.47 7.55-1.32-3.55 6.81 3.6 6.78z"/><path d="M85.72 87.52h-.1a.35.35 0 0 1-.24-.28l-1.1-7.41-6.73-3.29a.35.35 0 0 1 0-.62l6.71-3.33 1-7.42a.35.35 0 0 1 .23-.28.34.34 0 0 1 .36.09l5.24 5.34L98.52 69a.35.35 0 0 1 .34.14.34.34 0 0 1 0 .36l-3.47 6.64 3.51 6.62a.38.38 0 0 1 0 .37.36.36 0 0 1-.34.14L91.18 82 86 87.41a.36.36 0 0 1-.28.11zm-7.24-11.31 6.27 3.06a.36.36 0 0 1 .19.26l1 6.9 4.85-5a.35.35 0 0 1 .31-.1l6.9 1.15-3.26-6.16a.36.36 0 0 1 0-.32L98 69.81 91.08 71a.33.33 0 0 1-.3-.09l-4.88-5-1 6.9a.36.36 0 0 1-.19.26z" fill="#54F5FF"/><path d="M280 81.8h3.82c.92 0 1.38.19 1.38.59a7.69 7.69 0 0 1-1.3 2.48q-.93 1.78-2.19 4.39c1.42-.07 2.59-.1 3.49-.1a.26.26 0 0 1 .24.27c0 .51-.17.77-.36.77-2.18.06-3.56.09-4.15.09s-1-.14-1.21-.42v-.15c0-.08.39-1 1.17-2.75q1.59-3 2.24-4.14h-2.64c-.62 0-.94-.11-.94-.32v-.05q.04-.66.45-.66zM296.35 66.83h6.29c1.52 0 2.28.33 2.28 1s-.72 1.89-2.15 4.09c-1 2-2.23 4.37-3.61 7.23 2.35-.11 4.27-.17 5.76-.17a.44.44 0 0 1 .4.45c-.08.85-.28 1.27-.6 1.27-3.6.11-5.87.16-6.83.16s-1.73-.23-2-.69v-.25q0-.21 1.94-4.53c1.74-3.35 3-5.63 3.68-6.82h-4.35c-1 0-1.54-.18-1.54-.53V68c-.01-.79.24-1.17.73-1.17zM313.73 58.3h10.42c2.52 0 3.77.54 3.77 1.63 0 .87-1.18 3.12-3.54 6.77q-2.56 4.88-6 12 5.87-.27 9.54-.27a.72.72 0 0 1 .67.75v.07c-.13 1.4-.46 2.1-1 2.1q-8.93.27-11.31.27c-1.76 0-2.87-.39-3.33-1.15V80c0-.24 1.07-2.74 3.22-7.52q4.32-8.33 6.1-11.31h-7.21c-1.7 0-2.56-.29-2.56-.88v-.09c0-1.27.41-1.9 1.23-1.9z"/><circle cx="101.33" cy="131.91" r="4.25" fill="#2DFFCD"/><path d="M101.33 136.5a4.6 4.6 0 1 1 4.59-4.59 4.6 4.6 0 0 1-4.59 4.59zm0-8.5a3.91 3.91 0 1 0 3.9 3.91 3.91 3.91 0 0 0-3.9-3.91z" fill="#2DFFCD"/><circle cx="271.24" cy="238.7" r="3.16" fill="#2DFFCD"/><path d="M271.24 242.21a3.51 3.51 0 1 1 3.5-3.51 3.51 3.51 0 0 1-3.5 3.51zm0-6.32a2.82 2.82 0 1 0 2.81 2.81 2.82 2.82 0 0 0-2.81-2.81z" fill="#2DFFCD"/><circle cx="101.33" cy="235.54" r="13.77" fill="#2DFFCD"/><path d="M101.33 249.66a14.12 14.12 0 1 1 14.11-14.12 14.13 14.13 0 0 1-14.11 14.12zm0-27.54a13.43 13.43 0 1 0 13.42 13.42 13.44 13.44 0 0 0-13.42-13.42z" fill="#2DFFCD"/><circle cx="312.4" cy="161.09" r="2.3" fill="#2DFFCD"/><path d="M312.4 163.74a2.65 2.65 0 1 1 2.65-2.65 2.65 2.65 0 0 1-2.65 2.65zm0-4.6a2 2 0 1 0 2 2 2 2 0 0 0-2-2z" fill="#2DFFCD"/><circle cx="253.19" cy="251.54" r="2.22" fill="#2DFFCD"/><path d="M253.19 254a2.47 2.47 0 1 1 2.47-2.46 2.47 2.47 0 0 1-2.47 2.46zm0-4.44a2 2 0 1 0 2 2 2 2 0 0 0-2-2zM297.33 239.15a.45.45 0 0 1-.45-.45v-3.16a.45.45 0 0 1 .45-.45.46.46 0 0 1 .46.45v3.16a.46.46 0 0 1-.46.45zM297.33 245.47a.45.45 0 0 1-.45-.45v-3.16a.45.45 0 0 1 .45-.45.46.46 0 0 1 .46.45V245a.46.46 0 0 1-.46.47zM302.07 240.73h-3.16a.45.45 0 0 1 0-.9h3.16a.45.45 0 0 1 0 .9zM295.75 240.73h-3.15a.45.45 0 0 1 0-.9h3.15a.45.45 0 1 1 0 .9zM130.66 243.89a.45.45 0 0 1-.45-.45v-3.16a.45.45 0 0 1 .9 0v3.16a.45.45 0 0 1-.45.45zM130.66 250.21a.45.45 0 0 1-.45-.45v-3.16a.45.45 0 0 1 .9 0v3.16a.45.45 0 0 1-.45.45zM135.4 245.47h-3.16a.45.45 0 0 1 0-.9h3.16a.45.45 0 0 1 0 .9zM129.08 245.47h-3.16a.45.45 0 1 1 0-.9h3.16a.45.45 0 0 1 0 .9zM132.24 57.17a.45.45 0 0 1-.45-.45v-3.16a.45.45 0 1 1 .9 0v3.16a.45.45 0 0 1-.45.45zM132.24 63.49a.45.45 0 0 1-.45-.45v-3.16a.45.45 0 1 1 .9 0V63a.45.45 0 0 1-.45.49zM137 58.75h-3.16a.45.45 0 1 1 0-.9H137a.45.45 0 0 1 0 .9zM130.66 58.75h-3.16a.45.45 0 0 1 0-.9h3.16a.45.45 0 0 1 0 .9zM68.44 160a.45.45 0 0 1-.45-.45v-3.16a.45.45 0 1 1 .9 0v3.16a.45.45 0 0 1-.45.45zM68.44 166.28a.45.45 0 0 1-.45-.45v-3.16a.45.45 0 0 1 .9 0v3.16a.45.45 0 0 1-.45.45zM73.17 161.55H70a.46.46 0 0 1 0-.91h3.15a.46.46 0 0 1 0 .91zM66.86 161.55H63.7a.46.46 0 0 1 0-.91h3.16a.46.46 0 0 1 0 .91zM101.33 182.67a.46.46 0 0 1-.46-.45v-8.06a.46.46 0 0 1 .91 0v8.06a.45.45 0 0 1-.45.45z" fill="#d1d3d4"/><path d="M105.35 178.64h-8a.45.45 0 1 1 0-.9h8a.45.45 0 0 1 0 .9zM124.83 90.2a.45.45 0 0 1-.45-.45v-8.06a.45.45 0 0 1 .9 0v8.06a.45.45 0 0 1-.45.45z" fill="#d1d3d4"/><path d="M128.86 86.17h-8.06a.45.45 0 1 1 0-.9h8.06a.45.45 0 0 1 0 .9zM298.91 208.58a.45.45 0 0 1-.45-.45v-8a.45.45 0 1 1 .9 0v8a.45.45 0 0 1-.45.45z" fill="#d1d3d4"/><path d="M302.94 204.56h-8.05a.46.46 0 1 1 0-.91h8.05a.46.46 0 0 1 0 .91z" fill="#d1d3d4"/><circle cx="311.25" cy="203.96" r="1.15" fill="#d1d3d4"/><circle cx="153.53" cy="262.01" r="1.15" fill="#d1d3d4"/></g></svg>